ply
format ascii 1.0
comment Created by Blender 2.79 (sub 0) - www.blender.org, source file: 'Creeper.blend'
element vertex 144
property float x
property float y
property float z
property float nx
property float ny
property float nz
property float s
property float t
element face 36
property list uchar uint vertex_indices
end_header
0.080831 -0.001559 -0.203770 -0.554704 -0.577319 -0.599109 0.783800 0.139000
0.305931 -0.001559 -0.195069 0.599109 -0.577349 -0.554704 0.792700 0.005100
0.298231 -0.001560 0.005831 0.554826 -0.577349 0.598987 0.540500 0.005100
0.073131 -0.001560 -0.002769 -0.598987 -0.577319 0.554857 0.534600 0.144700
0.080831 0.250240 -0.203770 -0.554704 0.577319 -0.599109 0.522700 0.137400
0.073131 0.250240 -0.002769 -0.598987 0.577319 0.554857 0.261600 0.140200
0.298231 0.250240 0.005831 0.554826 0.577349 0.598987 0.267500 -0.002200
0.305931 0.250240 -0.195069 0.599109 0.577349 -0.554704 0.522700 0.000600
0.080831 -0.001559 -0.203770 -0.554704 -0.577319 -0.599109 0.521600 0.004400
0.080831 0.250240 -0.203770 -0.554704 0.577319 -0.599109 0.521600 0.582700
0.305931 0.250240 -0.195069 0.599109 0.577349 -0.554704 0.266400 0.585600
0.305931 -0.001559 -0.195069 0.599109 -0.577349 -0.554704 0.266400 0.001600
0.305931 -0.001559 -0.195069 0.599109 -0.577349 -0.554704 0.840200 0.004400
0.305931 0.250240 -0.195069 0.599109 0.577349 -0.554704 0.846100 0.582700
0.298231 0.250240 0.005831 0.554826 0.577349 0.598987 0.531600 0.582700
0.298231 -0.001560 0.005831 0.554826 -0.577349 0.598987 0.540500 0.004400
0.298231 -0.001560 0.005831 0.554826 -0.577349 0.598987 0.515700 0.004400
0.298231 0.250240 0.005831 0.554826 0.577349 0.598987 0.521600 0.588400
0.073131 0.250240 -0.002769 -0.598987 0.577319 0.554857 0.367300 0.594100
0.073131 -0.001560 -0.002769 -0.598987 -0.577319 0.554857 0.355400 0.004400
0.080831 0.250240 -0.203770 -0.554704 0.577319 -0.599109 0.846100 0.577000
0.080831 -0.001559 -0.203770 -0.554704 -0.577319 -0.599109 0.840200 0.015800
0.073131 -0.001560 -0.002769 -0.598987 -0.577319 0.554857 0.546400 0.010100
0.073131 0.250240 -0.002769 -0.598987 0.577319 0.554857 0.531600 0.579900
-0.312169 -0.001559 -0.203770 -0.554704 -0.577319 -0.599109 0.783800 0.139000
-0.087069 -0.001559 -0.195069 0.599109 -0.577349 -0.554704 0.792700 0.005100
-0.094769 -0.001560 0.005831 0.554826 -0.577349 0.598987 0.540500 0.005100
-0.319869 -0.001560 -0.002769 -0.598987 -0.577319 0.554857 0.534600 0.144700
-0.312169 0.250240 -0.203770 -0.554704 0.577319 -0.599109 0.522700 0.137400
-0.319869 0.250240 -0.002769 -0.598987 0.577319 0.554857 0.261600 0.140200
-0.094769 0.250240 0.005831 0.554826 0.577349 0.598987 0.267500 -0.002200
-0.087069 0.250240 -0.195069 0.599109 0.577349 -0.554704 0.522700 0.000600
-0.312169 -0.001559 -0.203770 -0.554704 -0.577319 -0.599109 0.521600 0.004400
-0.312169 0.250240 -0.203770 -0.554704 0.577319 -0.599109 0.521600 0.582700
-0.087069 0.250240 -0.195069 0.599109 0.577349 -0.554704 0.266400 0.585600
-0.087069 -0.001559 -0.195069 0.599109 -0.577349 -0.554704 0.266400 0.001600
-0.087069 -0.001559 -0.195069 0.599109 -0.577349 -0.554704 0.840200 0.004400
-0.087069 0.250240 -0.195069 0.599109 0.577349 -0.554704 0.846100 0.582700
-0.094769 0.250240 0.005831 0.554826 0.577349 0.598987 0.531600 0.582700
-0.094769 -0.001560 0.005831 0.554826 -0.577349 0.598987 0.540500 0.004400
-0.094769 -0.001560 0.005831 0.554826 -0.577349 0.598987 0.515700 0.004400
-0.094769 0.250240 0.005831 0.554826 0.577349 0.598987 0.521600 0.588400
-0.319869 0.250240 -0.002769 -0.598987 0.577319 0.554857 0.367300 0.594100
-0.319869 -0.001560 -0.002769 -0.598987 -0.577319 0.554857 0.355400 0.004400
-0.312169 0.250240 -0.203770 -0.554704 0.577319 -0.599109 0.846100 0.577000
-0.312169 -0.001559 -0.203770 -0.554704 -0.577319 -0.599109 0.840200 0.015800
-0.319869 -0.001560 -0.002769 -0.598987 -0.577319 0.554857 0.546400 0.010100
-0.319869 0.250240 -0.002769 -0.598987 0.577319 0.554857 0.531600 0.579900
0.200831 0.870341 -0.233669 0.562456 -0.584643 -0.584643 0.581400 0.541300
0.200831 0.870340 0.232131 0.562456 -0.584643 0.584643 0.575500 0.339000
-0.264969 0.883541 0.218930 -0.592181 -0.569750 0.569750 0.269900 0.336200
-0.264969 0.883541 -0.220469 -0.592181 -0.569750 -0.569750 0.266900 0.544200
0.200831 1.336140 -0.233669 0.562456 0.584643 -0.584643 0.996900 1.002800
-0.264969 1.322940 -0.220469 -0.592181 0.569750 -0.569750 0.584400 0.994300
-0.264969 1.322940 0.218930 -0.592181 0.569750 0.569750 0.587400 0.601100
0.200831 1.336140 0.232131 0.562456 0.584643 0.584643 0.993900 0.612500
0.200831 0.870341 -0.233669 0.562456 -0.584643 -0.584643 1.000000 0.606700
0.200831 1.336140 -0.233669 0.562456 0.584643 -0.584643 0.988100 0.994200
0.200831 1.336140 0.232131 0.562456 0.584643 0.584643 0.599400 1.002800
0.200831 0.870340 0.232131 0.562456 -0.584643 0.584643 0.596400 0.603900
0.200831 0.870340 0.232131 0.562456 -0.584643 0.584643 0.996900 0.609600
0.200831 1.336140 0.232131 0.562456 0.584643 0.584643 0.990900 0.997100
-0.264969 1.322940 0.218930 -0.592181 0.569750 0.569750 0.590300 0.999900
-0.264969 0.883541 0.218930 -0.592181 -0.569750 0.569750 0.593300 0.603900
-0.264969 0.883541 0.218930 -0.592181 -0.569750 0.569750 0.213700 0.549800
-0.264969 1.322940 0.218930 -0.592181 0.569750 0.569750 0.213700 0.997100
-0.264969 1.322940 -0.220469 -0.592181 0.569750 -0.569750 0.635000 0.994200
-0.264969 0.883541 -0.220469 -0.592181 -0.569750 -0.569750 0.635000 0.549800
0.200831 1.336140 -0.233669 0.562456 0.584643 -0.584643 0.988000 0.994200
0.200831 0.870341 -0.233669 0.562456 -0.584643 -0.584643 0.990900 0.603900
-0.264969 0.883541 -0.220469 -0.592181 -0.569750 -0.569750 0.614100 0.595400
-0.264969 1.322940 -0.220469 -0.592181 0.569750 -0.569750 0.614100 0.997100
0.073431 0.000041 -0.007770 -0.554552 -0.577349 -0.599231 0.783800 0.139000
0.298531 0.000041 0.000931 0.599261 -0.577319 -0.554552 0.792700 0.005100
0.290731 0.000040 0.201931 0.554552 -0.577349 0.599231 0.540500 0.005100
0.065631 0.000040 0.193231 -0.599261 -0.577319 0.554552 0.534600 0.144700
0.073431 0.251740 -0.007770 -0.554552 0.577349 -0.599231 0.522700 0.137400
0.065631 0.251740 0.193231 -0.599261 0.577319 0.554552 0.261600 0.140200
0.290731 0.251740 0.201931 0.554552 0.577349 0.599231 0.267500 -0.002200
0.298531 0.251740 0.000931 0.599261 0.577319 -0.554552 0.522700 0.000600
0.073431 0.000041 -0.007770 -0.554552 -0.577349 -0.599231 0.521600 0.004400
0.073431 0.251740 -0.007770 -0.554552 0.577349 -0.599231 0.521600 0.582700
0.298531 0.251740 0.000931 0.599261 0.577319 -0.554552 0.266400 0.585600
0.298531 0.000041 0.000931 0.599261 -0.577319 -0.554552 0.266400 0.001600
0.298531 0.000041 0.000931 0.599261 -0.577319 -0.554552 0.840200 0.004400
0.298531 0.251740 0.000931 0.599261 0.577319 -0.554552 0.846100 0.582700
0.290731 0.251740 0.201931 0.554552 0.577349 0.599231 0.531600 0.582700
0.290731 0.000040 0.201931 0.554552 -0.577349 0.599231 0.540500 0.004400
0.290731 0.000040 0.201931 0.554552 -0.577349 0.599231 0.515700 0.004400
0.290731 0.251740 0.201931 0.554552 0.577349 0.599231 0.521600 0.588400
0.065631 0.251740 0.193231 -0.599261 0.577319 0.554552 0.367300 0.594100
0.065631 0.000040 0.193231 -0.599261 -0.577319 0.554552 0.355400 0.004400
0.073431 0.251740 -0.007770 -0.554552 0.577349 -0.599231 0.846100 0.577000
0.073431 0.000041 -0.007770 -0.554552 -0.577349 -0.599231 0.840200 0.015800
0.065631 0.000040 0.193231 -0.599261 -0.577319 0.554552 0.546400 0.010100
0.065631 0.251740 0.193231 -0.599261 0.577319 0.554552 0.531600 0.579900
-0.319769 0.000041 -0.002469 -0.554613 -0.577349 -0.599200 0.783800 0.139000
-0.094669 0.000041 0.006230 0.599200 -0.577349 -0.554613 0.792700 0.005100
-0.102069 0.000040 0.197631 0.554613 -0.577349 0.599200 0.540500 0.005100
-0.327169 0.000040 0.188931 -0.599200 -0.577349 0.554613 0.534600 0.144700
-0.319769 0.251740 -0.002469 -0.554613 0.577349 -0.599200 0.522700 0.137400
-0.327169 0.251740 0.188931 -0.599200 0.577349 0.554613 0.261600 0.140200
-0.102069 0.251740 0.197631 0.554613 0.577349 0.599200 0.267500 -0.002200
-0.094669 0.251740 0.006230 0.599200 0.577349 -0.554613 0.522700 0.000600
-0.319769 0.000041 -0.002469 -0.554613 -0.577349 -0.599200 0.521600 0.004400
-0.319769 0.251740 -0.002469 -0.554613 0.577349 -0.599200 0.521600 0.582700
-0.094669 0.251740 0.006230 0.599200 0.577349 -0.554613 0.266400 0.585600
-0.094669 0.000041 0.006230 0.599200 -0.577349 -0.554613 0.266400 0.001600
-0.094669 0.000041 0.006230 0.599200 -0.577349 -0.554613 0.840200 0.004400
-0.094669 0.251740 0.006230 0.599200 0.577349 -0.554613 0.846100 0.582700
-0.102069 0.251740 0.197631 0.554613 0.577349 0.599200 0.531600 0.582700
-0.102069 0.000040 0.197631 0.554613 -0.577349 0.599200 0.540500 0.004400
-0.102069 0.000040 0.197631 0.554613 -0.577349 0.599200 0.515700 0.004400
-0.102069 0.251740 0.197631 0.554613 0.577349 0.599200 0.521600 0.588400
-0.327169 0.251740 0.188931 -0.599200 0.577349 0.554613 0.367300 0.594100
-0.327169 0.000040 0.188931 -0.599200 -0.577349 0.554613 0.355400 0.004400
-0.319769 0.251740 -0.002469 -0.554613 0.577349 -0.599200 0.846100 0.577000
-0.319769 0.000041 -0.002469 -0.554613 -0.577349 -0.599200 0.840200 0.015800
-0.327169 0.000040 0.188931 -0.599200 -0.577349 0.554613 0.546400 0.010100
-0.327169 0.251740 0.188931 -0.599200 0.577349 0.554613 0.531600 0.579900
-0.088569 0.134440 -0.192570 -0.526933 -0.610126 -0.591632 0.783800 0.139000
0.103931 0.146040 -0.187769 0.625202 -0.540696 -0.562792 0.792700 0.005100
0.094431 0.145440 0.193131 0.596332 -0.542467 0.591693 0.540500 0.005100
-0.098169 0.133840 0.188231 -0.555956 -0.611896 0.562517 0.534600 0.144700
-0.144269 1.059040 -0.192570 -0.596362 0.542497 -0.591601 0.000000 0.000000
-0.153869 1.058441 0.188231 -0.625416 0.540696 0.562548 0.000000 0.000000
0.038731 1.070041 0.193131 0.526902 0.610065 0.591723 0.000000 0.000000
0.048231 1.070640 -0.187769 0.555773 0.611896 -0.562731 0.000000 0.000000
-0.088569 0.134440 -0.192570 -0.526933 -0.610126 -0.591632 0.521600 0.004400
-0.144269 1.059040 -0.192570 -0.596362 0.542497 -0.591601 0.521600 0.582700
0.048231 1.070640 -0.187769 0.555773 0.611896 -0.562731 0.266400 0.585600
0.103931 0.146040 -0.187769 0.625202 -0.540696 -0.562792 0.266400 0.001600
0.103931 0.146040 -0.187769 0.625202 -0.540696 -0.562792 0.840200 0.004400
0.048231 1.070640 -0.187769 0.555773 0.611896 -0.562731 0.846100 0.582700
0.038731 1.070041 0.193131 0.526902 0.610065 0.591723 0.531600 0.582700
0.094431 0.145440 0.193131 0.596332 -0.542467 0.591693 0.540500 0.004400
0.094431 0.145440 0.193131 0.596332 -0.542467 0.591693 0.515700 0.004400
0.038731 1.070041 0.193131 0.526902 0.610065 0.591723 0.521600 0.588400
-0.153869 1.058441 0.188231 -0.625416 0.540696 0.562548 0.367300 0.594100
-0.098169 0.133840 0.188231 -0.555956 -0.611896 0.562517 0.355400 0.004400
-0.144269 1.059040 -0.192570 -0.596362 0.542497 -0.591601 0.846100 0.577000
-0.088569 0.134440 -0.192570 -0.526933 -0.610126 -0.591632 0.840200 0.015800
-0.098169 0.133840 0.188231 -0.555956 -0.611896 0.562517 0.546400 0.010100
-0.153869 1.058441 0.188231 -0.625416 0.540696 0.562548 0.531600 0.579900
4 0 1 2 3
4 4 5 6 7
4 8 9 10 11
4 12 13 14 15
4 16 17 18 19
4 20 21 22 23
4 24 25 26 27
4 28 29 30 31
4 32 33 34 35
4 36 37 38 39
4 40 41 42 43
4 44 45 46 47
4 48 49 50 51
4 52 53 54 55
4 56 57 58 59
4 60 61 62 63
4 64 65 66 67
4 68 69 70 71
4 72 73 74 75
4 76 77 78 79
4 80 81 82 83
4 84 85 86 87
4 88 89 90 91
4 92 93 94 95
4 96 97 98 99
4 100 101 102 103
4 104 105 106 107
4 108 109 110 111
4 112 113 114 115
4 116 117 118 119
4 120 121 122 123
4 124 125 126 127
4 128 129 130 131
4 132 133 134 135
4 136 137 138 139
4 140 141 142 143
