# Blender v2.79 (sub 0) OBJ File: 'GameOverText.blend'
# www.blender.org
o Text
v 6.416243 1.734164 -0.305780
v 6.416243 0.000000 0.000000
v 6.542760 0.000000 0.000000
v 6.542760 0.752658 -0.132714
v 6.595691 0.752658 -0.132714
v 6.611629 0.751651 -0.132536
v 6.627344 0.747996 -0.131892
v 6.643095 0.740739 -0.130612
v 6.659141 0.728925 -0.128529
v 6.675743 0.711603 -0.125475
v 6.693161 0.687817 -0.121281
v 6.711655 0.656615 -0.115779
v 6.731484 0.617044 -0.108801
v 6.752910 0.568149 -0.100180
v 6.776191 0.508976 -0.089746
v 6.801588 0.438574 -0.077332
v 6.829360 0.355987 -0.062770
v 6.945550 0.000000 0.000000
v 7.096597 0.000000 0.000000
v 7.082203 0.039192 -0.006911
v 7.069235 0.074517 -0.013139
v 7.057504 0.106558 -0.018789
v 7.046822 0.135897 -0.023962
v 7.037000 0.163116 -0.028762
v 7.027851 0.188800 -0.033291
v 7.019186 0.213530 -0.037651
v 7.010817 0.237890 -0.041946
v 7.002556 0.262461 -0.046279
v 6.994214 0.287827 -0.050752
v 6.985602 0.314570 -0.055467
v 6.976534 0.343273 -0.060528
v 6.960100 0.396141 -0.069850
v 6.944248 0.446679 -0.078762
v 6.928808 0.494885 -0.087262
v 6.913610 0.540761 -0.095351
v 6.898485 0.584306 -0.103029
v 6.883260 0.625520 -0.110296
v 6.867767 0.664403 -0.117152
v 6.851834 0.700955 -0.123597
v 6.835292 0.735176 -0.129631
v 6.817969 0.767067 -0.135255
v 6.799697 0.796626 -0.140467
v 6.780303 0.823855 -0.145268
v 6.802996 0.843865 -0.148796
v 6.823928 0.866964 -0.152869
v 6.843058 0.893066 -0.157472
v 6.860345 0.922081 -0.162588
v 6.875750 0.953921 -0.168202
v 6.889231 0.988499 -0.174299
v 6.900749 1.025725 -0.180863
v 6.910264 1.065512 -0.187879
v 6.917734 1.107770 -0.195330
v 6.923120 1.152413 -0.203202
v 6.926381 1.199351 -0.211478
v 6.927476 1.248497 -0.220144
v 6.925189 1.321083 -0.232943
v 6.918427 1.388655 -0.244857
v 6.907345 1.450964 -0.255844
v 6.892094 1.507764 -0.265860
v 6.872826 1.558808 -0.274860
v 6.849694 1.603848 -0.282802
v 6.822850 1.642637 -0.289641
v 6.792448 1.674927 -0.295335
v 6.758638 1.700473 -0.299839
v 6.721574 1.719025 -0.303111
v 6.681408 1.730338 -0.305105
v 6.638293 1.734164 -0.305780
v 6.542760 1.520572 -0.268118
v 6.624093 1.520572 -0.268118
v 6.653235 1.518527 -0.267757
v 6.679402 1.512473 -0.266690
v 6.702682 1.502534 -0.264937
v 6.723164 1.488835 -0.262522
v 6.740939 1.471497 -0.259465
v 6.756096 1.450646 -0.255788
v 6.768725 1.426405 -0.251514
v 6.778916 1.398896 -0.246663
v 6.786757 1.368245 -0.241259
v 6.792340 1.334574 -0.235321
v 6.795753 1.298007 -0.228874
v 6.797086 1.258667 -0.221937
v 6.796542 1.222667 -0.215589
v 6.794134 1.187435 -0.209377
v 6.789663 1.153421 -0.203379
v 6.782933 1.121076 -0.197676
v 6.773746 1.090850 -0.192346
v 6.761907 1.063193 -0.187470
v 6.747216 1.038555 -0.183125
v 6.729476 1.017388 -0.179393
v 6.708492 1.000140 -0.176352
v 6.684064 0.987263 -0.174081
v 6.655997 0.979206 -0.172661
v 6.624093 0.976421 -0.172169
v 6.542760 0.976421 -0.172169
v 6.267778 1.734164 -0.305780
v 5.768163 1.734164 -0.305780
v 5.768163 0.000000 0.000000
v 6.279397 0.000000 0.000000
v 6.279397 0.223763 -0.039455
v 5.894681 0.223763 -0.039455
v 5.894681 0.762829 -0.134507
v 6.254868 0.762829 -0.134507
v 6.254868 0.986592 -0.173963
v 5.894681 0.986592 -0.173963
v 5.894681 1.510401 -0.266325
v 6.267778 1.510401 -0.266325
v 5.671339 1.734164 -0.305780
v 5.546113 1.734164 -0.305780
v 5.282750 0.516181 -0.091017
v 5.018095 1.734164 -0.305780
v 4.891578 1.734164 -0.305780
v 5.272421 -0.015257 0.002690
v 5.298241 -0.015257 0.002690
v 3.887185 0.867082 -0.152890
v 3.890933 0.750752 -0.132378
v 3.902001 0.637821 -0.112465
v 3.920125 0.529570 -0.093378
v 3.945040 0.427278 -0.075341
v 3.976482 0.332226 -0.058580
v 4.014186 0.245695 -0.043323
v 4.057888 0.168963 -0.029793
v 4.107323 0.103312 -0.018217
v 4.162227 0.050021 -0.008820
v 4.222335 0.010371 -0.001829
v 4.287383 -0.014357 0.002532
v 4.357106 -0.022885 0.004035
v 4.429126 -0.014309 0.002523
v 4.495942 0.010548 -0.001860
v 4.557352 0.050378 -0.008883
v 4.613154 0.103877 -0.018316
v 4.663146 0.169735 -0.029929
v 4.707128 0.246648 -0.043491
v 4.744896 0.333308 -0.058771
v 4.776250 0.428408 -0.075540
v 4.800987 0.530643 -0.093567
v 4.818906 0.638704 -0.112621
v 4.829806 0.751286 -0.132472
v 4.833484 0.867082 -0.152890
v 4.829709 0.986083 -0.173873
v 4.818560 1.100757 -0.194093
v 4.800301 1.209958 -0.213348
v 4.775198 1.312536 -0.231436
v 4.743514 1.407346 -0.248153
v 4.705513 1.493237 -0.263298
v 4.661462 1.569064 -0.276668
v 4.611623 1.633678 -0.288062
v 4.556262 1.685931 -0.297275
v 4.495643 1.724676 -0.304107
v 4.430030 1.748765 -0.308354
v 4.359689 1.757049 -0.309815
v 4.290457 1.748716 -0.308346
v 4.225622 1.724499 -0.304076
v 4.165494 1.685574 -0.297212
v 4.110383 1.633113 -0.287962
v 4.060597 1.568292 -0.276532
v 4.016445 1.492284 -0.263130
v 3.978238 1.406264 -0.247962
v 3.946283 1.311406 -0.231236
v 3.920892 1.208885 -0.213159
v 3.902372 1.099874 -0.193938
v 3.891033 0.985549 -0.173779
v 4.017575 0.867082 -0.152890
v 4.020559 0.960214 -0.169312
v 4.029290 1.048489 -0.184877
v 4.043436 1.131291 -0.199477
v 4.062665 1.208001 -0.213003
v 4.086645 1.278000 -0.225346
v 4.115046 1.340672 -0.236397
v 4.147534 1.395397 -0.246046
v 4.183779 1.441558 -0.254186
v 4.223448 1.478537 -0.260706
v 4.266211 1.505716 -0.265498
v 4.311735 1.522476 -0.268454
v 4.359689 1.528200 -0.269463
v 4.407939 1.522476 -0.268454
v 4.453710 1.505716 -0.265498
v 4.496675 1.478537 -0.260706
v 4.536507 1.441558 -0.254186
v 4.572878 1.395397 -0.246046
v 4.605461 1.340672 -0.236397
v 4.633930 1.278000 -0.225346
v 4.657956 1.208001 -0.213003
v 4.677212 1.131291 -0.199477
v 4.691372 1.048489 -0.184877
v 4.700108 0.960214 -0.169312
v 4.703093 0.867082 -0.152890
v 4.700109 0.774485 -0.136563
v 4.691373 0.686558 -0.121059
v 4.677213 0.603946 -0.106492
v 4.657957 0.527294 -0.092976
v 4.633931 0.457245 -0.080625
v 4.605462 0.394446 -0.069551
v 4.572879 0.339540 -0.059870
v 4.536508 0.293171 -0.051694
v 4.496676 0.255985 -0.045137
v 4.453711 0.228625 -0.040313
v 4.407940 0.211736 -0.037335
v 4.359689 0.205964 -0.036317
v 4.311735 0.211736 -0.037335
v 4.266211 0.228625 -0.040313
v 4.223448 0.255985 -0.045137
v 4.183779 0.293171 -0.051694
v 4.147534 0.339540 -0.059870
v 4.115046 0.394446 -0.069551
v 4.086645 0.457245 -0.080625
v 4.062665 0.527294 -0.092976
v 4.043436 0.603946 -0.106492
v 4.029290 0.686558 -0.121059
v 4.020559 0.774485 -0.136563
v 3.421135 1.734164 -0.305780
v 2.921521 1.734164 -0.305780
v 2.921521 0.000000 0.000000
v 3.432754 0.000000 0.000000
v 3.432754 0.223763 -0.039455
v 3.048038 0.223763 -0.039455
v 3.048038 0.762829 -0.134507
v 3.408226 0.762829 -0.134507
v 3.408226 0.986592 -0.173963
v 3.048038 0.986592 -0.173963
v 3.048038 1.510401 -0.266325
v 3.421135 1.510401 -0.266325
v 2.731744 1.734164 -0.305780
v 2.614264 1.734164 -0.305780
v 2.321208 1.022191 -0.180240
v 2.029443 1.734164 -0.305780
v 1.910672 1.734164 -0.305780
v 1.910672 0.000000 0.000000
v 2.037189 0.000000 0.000000
v 2.037189 1.350207 -0.238078
v 2.039771 1.350207 -0.238078
v 2.310880 0.678918 -0.119712
v 2.331536 0.678918 -0.119712
v 2.602645 1.350207 -0.238078
v 2.605227 1.350207 -0.238078
v 2.605227 0.000000 0.000000
v 2.731744 0.000000 0.000000
v 1.422676 1.744335 -0.307573
v 1.333597 1.744335 -0.307573
v 0.955336 0.000000 0.000000
v 1.084435 0.000000 0.000000
v 1.195461 0.511095 -0.090120
v 1.569849 0.511095 -0.090120
v 1.687330 0.000000 0.000000
v 1.816429 0.000000 0.000000
v 1.376200 1.362921 -0.240320
v 1.518209 0.734858 -0.129575
v 1.244519 0.734858 -0.129575
v 0.868839 0.854368 -0.150648
v 0.573202 0.854368 -0.150648
v 0.573202 0.630605 -0.111193
v 0.742322 0.630605 -0.111193
v 0.742322 0.274618 -0.048423
v 0.727123 0.265255 -0.046772
v 0.711852 0.256289 -0.045191
v 0.696491 0.247800 -0.043694
v 0.681023 0.239867 -0.042295
v 0.665430 0.232570 -0.041008
v 0.649693 0.225988 -0.039848
v 0.633795 0.220201 -0.038827
v 0.617717 0.215287 -0.037961
v 0.601442 0.211327 -0.037263
v 0.584952 0.208401 -0.036747
v 0.568229 0.206586 -0.036427
v 0.551255 0.205964 -0.036317
v 0.500310 0.211541 -0.037300
v 0.452243 0.227907 -0.040186
v 0.407349 0.254515 -0.044878
v 0.365925 0.290817 -0.051279
v 0.328267 0.336266 -0.059293
v 0.294669 0.390314 -0.068823
v 0.265429 0.452415 -0.079773
v 0.240842 0.522020 -0.092046
v 0.221204 0.598582 -0.105546
v 0.206810 0.681555 -0.120177
v 0.197957 0.770389 -0.135840
v 0.194940 0.864539 -0.152442
v 0.197972 0.956653 -0.168684
v 0.206822 1.044369 -0.184151
v 0.221123 1.127000 -0.198721
v 0.240507 1.203857 -0.212273
v 0.264608 1.274251 -0.224685
v 0.293056 1.337493 -0.235836
v 0.325485 1.392895 -0.245605
v 0.361526 1.439769 -0.253870
v 0.400813 1.477425 -0.260510
v 0.442979 1.505174 -0.265403
v 0.487654 1.522329 -0.268428
v 0.534472 1.528200 -0.269463
v 0.560961 1.526985 -0.269249
v 0.587486 1.523350 -0.268608
v 0.614029 1.517314 -0.267543
v 0.640572 1.508894 -0.266059
v 0.667097 1.498108 -0.264157
v 0.693587 1.484973 -0.261841
v 0.720022 1.469508 -0.259114
v 0.746386 1.451729 -0.255979
v 0.772660 1.431655 -0.252439
v 0.798827 1.409303 -0.248498
v 0.824868 1.384690 -0.244158
v 0.850765 1.357835 -0.239423
v 0.850765 1.609569 -0.283810
v 0.817547 1.636508 -0.288561
v 0.786736 1.660224 -0.292742
v 0.757995 1.680885 -0.296386
v 0.730990 1.698660 -0.299520
v 0.705383 1.713715 -0.302174
v 0.680838 1.726218 -0.304379
v 0.657020 1.736338 -0.306163
v 0.633591 1.744241 -0.307557
v 0.610217 1.750096 -0.308589
v 0.586560 1.754071 -0.309290
v 0.562284 1.756333 -0.309689
v 0.537054 1.757049 -0.309815
v 0.471347 1.749099 -0.308413
v 0.408815 1.725865 -0.304317
v 0.349940 1.688275 -0.297689
v 0.295207 1.637257 -0.288693
v 0.245101 1.573736 -0.277492
v 0.200104 1.498641 -0.264251
v 0.160702 1.412898 -0.249132
v 0.127378 1.317434 -0.232299
v 0.100617 1.213176 -0.213916
v 0.080902 1.101051 -0.194145
v 0.068719 0.981987 -0.173151
v 0.064550 0.856911 -0.151097
v 0.068618 0.732769 -0.129207
v 0.080526 0.615160 -0.108469
v 0.099830 0.504897 -0.089027
v 0.126087 0.402792 -0.071023
v 0.158853 0.309658 -0.054601
v 0.197684 0.226306 -0.039904
v 0.242135 0.153549 -0.027075
v 0.291765 0.092199 -0.016257
v 0.346128 0.043068 -0.007594
v 0.404781 0.006969 -0.001229
v 0.467279 -0.015286 0.002695
v 0.533181 -0.022885 0.004035
v 0.563305 -0.022026 0.003884
v 0.592471 -0.019400 0.003421
v 0.620847 -0.014939 0.002634
v 0.648605 -0.008570 0.001511
v 0.675915 -0.000224 0.000039
v 0.702946 0.010171 -0.001793
v 0.729871 0.022685 -0.004000
v 0.756857 0.037388 -0.006593
v 0.784077 0.054352 -0.009584
v 0.811701 0.073646 -0.012986
v 0.839898 0.095342 -0.016811
v 0.868839 0.119510 -0.021073
vn -0.0000 0.1736 0.9848
vn 0.0000 0.1737 0.9848
s off
f 2//1 68//1 1//1
f 68//1 67//1 1//1
f 68//2 66//2 67//2
f 68//1 65//1 66//1
f 68//1 64//1 65//1
f 68//1 63//1 64//1
f 68//1 62//1 63//1
f 68//1 61//1 62//1
f 68//1 60//1 61//1
f 68//1 69//1 60//1
f 69//1 59//1 60//1
f 2//1 94//1 68//1
f 70//1 59//1 69//1
f 71//2 59//2 70//2
f 72//1 59//1 71//1
f 72//1 58//1 59//1
f 73//2 58//2 72//2
f 74//1 58//1 73//1
f 75//1 58//1 74//1
f 75//1 57//1 58//1
f 76//2 57//2 75//2
f 77//1 57//1 76//1
f 78//1 57//1 77//1
f 78//1 56//1 57//1
f 79//1 56//1 78//1
f 80//1 56//1 79//1
f 80//1 55//1 56//1
f 81//1 55//1 80//1
f 82//1 55//1 81//1
f 82//1 54//1 55//1
f 83//2 54//2 82//2
f 83//1 53//1 54//1
f 84//1 53//1 83//1
f 85//1 53//1 84//1
f 85//1 52//1 53//1
f 86//1 52//1 85//1
f 86//1 51//1 52//1
f 87//1 51//1 86//1
f 87//1 50//1 51//1
f 88//1 50//1 87//1
f 89//1 50//1 88//1
f 89//1 49//1 50//1
f 90//2 49//2 89//2
f 91//1 49//1 90//1
f 91//1 48//1 49//1
f 92//1 48//1 91//1
f 93//1 48//1 92//1
f 2//1 4//1 94//1
f 4//2 93//2 94//2
f 4//1 48//1 93//1
f 4//1 47//1 48//1
f 4//1 46//1 47//1
f 4//1 45//1 46//1
f 4//2 44//2 45//2
f 4//1 43//1 44//1
f 4//1 42//1 43//1
f 4//1 41//1 42//1
f 4//1 5//1 41//1
f 5//2 6//2 41//2
f 6//1 40//1 41//1
f 2//1 3//1 4//1
f 7//2 40//2 6//2
f 8//1 40//1 7//1
f 9//1 40//1 8//1
f 9//1 39//1 40//1
f 10//1 39//1 9//1
f 11//1 39//1 10//1
f 11//1 38//1 39//1
f 12//1 38//1 11//1
f 12//1 37//1 38//1
f 13//1 37//1 12//1
f 13//1 36//1 37//1
f 14//1 36//1 13//1
f 14//1 35//1 36//1
f 15//1 35//1 14//1
f 15//1 34//1 35//1
f 16//1 34//1 15//1
f 16//1 33//1 34//1
f 16//1 32//1 33//1
f 17//1 32//1 16//1
f 17//1 31//1 32//1
f 18//1 31//1 17//1
f 18//1 30//1 31//1
f 18//1 29//1 30//1
f 18//2 28//2 29//2
f 18//2 27//2 28//2
f 18//1 26//1 27//1
f 18//2 25//2 26//2
f 18//1 24//1 25//1
f 18//2 23//2 24//2
f 18//1 22//1 23//1
f 18//1 21//1 22//1
f 18//1 20//1 21//1
f 18//1 19//1 20//1
f 97//1 105//1 96//1
f 105//1 95//1 96//1
f 105//1 106//1 95//1
f 97//1 104//1 105//1
f 97//1 101//1 104//1
f 101//1 103//1 104//1
f 101//1 102//1 103//1
f 97//1 100//1 101//1
f 97//1 99//1 100//1
f 97//1 98//1 99//1
f 112//1 110//1 111//1
f 112//1 109//1 110//1
f 109//1 107//1 108//1
f 109//1 113//1 107//1
f 112//1 113//1 109//1
f 151//1 149//1 150//1
f 151//1 148//1 149//1
f 152//1 148//1 151//1
f 152//1 147//1 148//1
f 153//1 147//1 152//1
f 153//1 146//1 147//1
f 154//1 146//1 153//1
f 154//1 145//1 146//1
f 155//1 145//1 154//1
f 155//1 144//1 145//1
f 156//1 174//1 155//1
f 174//1 144//1 155//1
f 156//1 173//1 174//1
f 175//2 144//2 174//2
f 176//1 144//1 175//1
f 156//1 172//1 173//1
f 177//1 144//1 176//1
f 156//1 171//1 172//1
f 177//1 143//1 144//1
f 157//1 171//1 156//1
f 178//1 143//1 177//1
f 157//1 170//1 171//1
f 179//1 143//1 178//1
f 157//1 169//1 170//1
f 179//1 142//1 143//1
f 158//1 169//1 157//1
f 180//1 142//1 179//1
f 158//1 168//1 169//1
f 181//1 142//1 180//1
f 158//1 167//1 168//1
f 181//1 141//1 142//1
f 159//1 167//1 158//1
f 182//1 141//1 181//1
f 159//1 166//1 167//1
f 182//1 140//1 141//1
f 160//1 166//1 159//1
f 183//1 140//1 182//1
f 160//1 165//1 166//1
f 184//1 140//1 183//1
f 160//1 164//1 165//1
f 184//1 139//1 140//1
f 161//1 164//1 160//1
f 185//1 139//1 184//1
f 161//1 163//1 164//1
f 185//1 138//1 139//1
f 114//1 163//1 161//1
f 186//1 138//1 185//1
f 114//1 162//1 163//1
f 115//1 162//1 114//1
f 115//1 209//1 162//1
f 187//1 138//1 186//1
f 187//1 137//1 138//1
f 188//1 137//1 187//1
f 115//1 208//1 209//1
f 188//1 136//1 137//1
f 116//1 208//1 115//1
f 116//1 207//1 208//1
f 189//1 136//1 188//1
f 189//1 135//1 136//1
f 117//1 207//1 116//1
f 117//1 206//1 207//1
f 190//1 135//1 189//1
f 190//1 134//1 135//1
f 118//1 206//1 117//1
f 118//1 205//1 206//1
f 191//1 134//1 190//1
f 118//1 204//1 205//1
f 192//1 134//1 191//1
f 192//1 133//1 134//1
f 119//1 204//1 118//1
f 119//1 203//1 204//1
f 193//1 133//1 192//1
f 119//1 202//1 203//1
f 194//1 133//1 193//1
f 194//1 132//1 133//1
f 120//1 202//1 119//1
f 120//1 201//1 202//1
f 195//1 132//1 194//1
f 120//1 200//1 201//1
f 196//1 132//1 195//1
f 196//1 131//1 132//1
f 121//1 200//1 120//1
f 121//1 199//1 200//1
f 197//1 131//1 196//1
f 121//1 198//1 199//1
f 198//2 131//2 197//2
f 121//1 131//1 198//1
f 121//1 130//1 131//1
f 122//1 130//1 121//1
f 122//1 129//1 130//1
f 123//1 129//1 122//1
f 123//1 128//1 129//1
f 124//1 128//1 123//1
f 124//1 127//1 128//1
f 125//1 127//1 124//1
f 125//1 126//1 127//1
f 212//1 220//1 211//1
f 220//1 210//1 211//1
f 220//1 221//1 210//1
f 212//1 219//1 220//1
f 212//1 216//1 219//1
f 216//1 218//1 219//1
f 216//1 217//1 218//1
f 212//1 215//1 216//1
f 212//1 214//1 215//1
f 212//1 213//1 214//1
f 227//1 225//1 226//1
f 227//1 229//1 225//1
f 229//2 230//2 225//2
f 230//1 224//1 225//1
f 224//1 222//1 223//1
f 224//1 233//1 222//1
f 233//2 234//2 222//2
f 234//1 236//1 222//1
f 227//1 228//1 229//1
f 231//1 224//1 230//1
f 224//1 232//1 233//1
f 235//1 236//1 234//1
f 231//1 232//1 224//1
f 239//1 237//1 238//1
f 239//1 245//1 237//1
f 245//1 244//1 237//1
f 239//1 247//1 245//1
f 246//1 244//1 245//1
f 239//1 241//1 247//1
f 241//1 246//1 247//1
f 241//1 242//1 246//1
f 242//1 244//1 246//1
f 239//1 240//1 241//1
f 243//1 244//1 242//1
f 314//2 312//2 313//2
f 314//1 311//1 312//1
f 314//1 310//1 311//1
f 314//1 309//1 310//1
f 315//1 309//1 314//1
f 315//1 308//1 309//1
f 315//2 307//2 308//2
f 315//1 306//1 307//1
f 316//1 306//1 315//1
f 316//2 305//2 306//2
f 316//1 304//1 305//1
f 317//1 304//1 316//1
f 317//1 303//1 304//1
f 317//1 302//1 303//1
f 318//1 302//1 317//1
f 318//1 301//1 302//1
f 318//1 290//1 301//1
f 290//1 291//1 301//1
f 291//1 292//1 301//1
f 292//1 293//1 301//1
f 293//1 294//1 301//1
f 294//1 295//1 301//1
f 295//1 296//1 301//1
f 296//1 297//1 301//1
f 297//1 298//1 301//1
f 298//1 299//1 301//1
f 299//1 300//1 301//1
f 319//1 288//1 318//1
f 288//2 289//2 318//2
f 289//1 290//1 318//1
f 319//2 287//2 288//2
f 319//1 286//1 287//1
f 319//1 285//1 286//1
f 320//1 285//1 319//1
f 320//1 284//1 285//1
f 320//1 283//1 284//1
f 321//1 283//1 320//1
f 321//1 282//1 283//1
f 321//1 281//1 282//1
f 322//1 281//1 321//1
f 322//1 280//1 281//1
f 323//1 280//1 322//1
f 323//1 279//1 280//1
f 323//1 278//1 279//1
f 324//1 278//1 323//1
f 324//1 277//1 278//1
f 325//1 277//1 324//1
f 325//1 276//1 277//1
f 325//1 275//1 276//1
f 326//1 275//1 325//1
f 250//1 248//1 249//1
f 250//1 251//1 248//1
f 251//1 349//1 248//1
f 326//1 274//1 275//1
f 327//1 274//1 326//1
f 327//1 273//1 274//1
f 252//1 349//1 251//1
f 328//1 273//1 327//1
f 328//1 272//1 273//1
f 328//1 271//1 272//1
f 329//1 271//1 328//1
f 329//1 270//1 271//1
f 330//1 270//1 329//1
f 330//1 269//1 270//1
f 330//1 268//1 269//1
f 331//1 268//1 330//1
f 331//1 267//1 268//1
f 253//1 349//1 252//1
f 254//1 349//1 253//1
f 255//1 349//1 254//1
f 331//1 266//1 267//1
f 256//1 349//1 255//1
f 257//1 349//1 256//1
f 258//1 349//1 257//1
f 331//1 265//1 266//1
f 332//1 265//1 331//1
f 259//1 349//1 258//1
f 260//1 349//1 259//1
f 261//1 349//1 260//1
f 332//1 264//1 265//1
f 262//1 349//1 261//1
f 263//1 349//1 262//1
f 264//1 349//1 263//1
f 332//1 349//1 264//1
f 333//1 349//1 332//1
f 333//1 348//1 349//1
f 333//1 347//1 348//1
f 334//1 347//1 333//1
f 334//1 346//1 347//1
f 334//1 345//1 346//1
f 335//1 345//1 334//1
f 335//1 344//1 345//1
f 335//1 343//1 344//1
f 335//1 342//1 343//1
f 336//1 342//1 335//1
f 336//1 341//1 342//1
f 336//1 340//1 341//1
f 336//1 339//1 340//1
f 337//1 339//1 336//1
f 337//1 338//1 339//1
