# Blender v2.79 (sub 0) OBJ File: 'BigBaseTile30x30.blend'
# www.blender.org
mtllib BigBaseTile30x30.mtl
o Cube
v 29.999992 -0.500000 -29.999992
v 29.999992 -0.500000 -0.000007
v 0.000005 -0.500000 -0.000010
v 0.000012 -0.500000 -30.000000
v 30.000000 0.000000 -29.999985
v 29.999985 0.000000 0.000002
v 0.000001 0.000000 -0.000012
v 0.000008 0.000000 -29.999992
vn 0.0000 -1.0000 0.0000
vn 0.0000 1.0000 0.0000
vn 1.0000 -0.0000 0.0000
vn -0.0000 -0.0000 1.0000
vn -1.0000 -0.0000 -0.0000
vn 0.0000 0.0000 -1.0000
usemtl Material
s off
f 1//1 2//1 3//1 4//1
f 5//2 8//2 7//2 6//2
f 1//3 5//3 6//3 2//3
f 2//4 6//4 7//4 3//4
f 3//5 7//5 8//5 4//5
f 5//6 1//6 4//6 8//6
