# Blender v2.79 (sub 0) OBJ File: 'VertexBall.blend'
# www.blender.org
mtllib VertexBall.mtl
o Solid.001
v 0.933317 -0.178864 -0.412023
v 0.866634 -0.544110 -0.206011
v 0.579268 -0.770802 -0.412023
v 0.468349 -0.545659 -0.745356
v 0.687163 -0.179821 -0.745356
v -0.468349 0.545659 -0.745356
v -0.687163 0.179821 -0.745356
v -0.933317 0.178864 -0.412023
v -0.866634 0.544110 -0.206011
v -0.579268 0.770802 -0.412023
v 0.687163 -0.179821 0.745356
v 0.468349 -0.545659 0.745356
v 0.579268 -0.770802 0.412023
v 0.866634 -0.544110 0.206011
v 0.933317 -0.178864 0.412023
v -0.579268 0.770802 0.412023
v -0.866634 0.544110 0.206011
v -0.933317 0.178864 0.412023
v -0.687163 0.179821 0.745356
v -0.468349 0.545659 0.745356
v 0.820529 0.550671 -0.333334
v 0.709610 0.775814 0.000000
v 0.820529 0.550671 0.333334
v 1.000000 0.186382 0.206011
v 1.000000 0.186382 -0.206011
v 0.291902 -0.997494 -0.206011
v 0.291902 -0.997494 0.206011
v -0.106384 -0.999043 0.333334
v -0.352538 -1.000000 0.000000
v -0.106384 -0.999043 -0.333334
v -0.291902 0.997494 -0.206011
v -0.291902 0.997494 0.206011
v 0.106384 0.999043 0.333334
v 0.352538 1.000000 0.000000
v 0.106384 0.999043 -0.333334
v -0.820529 -0.550671 -0.333334
v -0.709610 -0.775814 0.000000
v -0.820529 -0.550671 0.333334
v -1.000000 -0.186382 0.206011
v -1.000000 -0.186382 -0.206011
v 0.507693 0.184468 -0.872678
v 0.109407 0.182919 -1.000000
v -0.070064 0.547208 -0.872678
v 0.217303 0.773900 -0.666667
v 0.574376 0.549714 -0.666667
v 0.574376 0.549714 0.666667
v 0.217303 0.773900 0.666667
v -0.070064 0.547208 0.872678
v 0.109407 0.182919 1.000000
v 0.507693 0.184468 0.872678
v -0.217303 -0.773900 -0.666667
v -0.574376 -0.549714 -0.666667
v -0.507693 -0.184468 -0.872678
v -0.109407 -0.182919 -1.000000
v 0.070064 -0.547208 -0.872678
v 0.070064 -0.547208 0.872678
v -0.109407 -0.182919 1.000000
v -0.507693 -0.184468 0.872678
v -0.574376 -0.549714 0.666667
v -0.217303 -0.773900 0.666667
vn 0.7254 -0.4339 -0.5344
vn -0.7254 0.4339 -0.5344
vn 0.7254 -0.4339 0.5344
vn -0.7254 0.4339 0.5344
vn 0.8970 0.4419 0.0000
vn 0.0039 -1.0000 0.0000
vn -0.0039 1.0000 0.0000
vn -0.8970 -0.4419 0.0000
vn 0.2727 0.4344 -0.8584
vn 0.2727 0.4344 0.8584
vn -0.2727 -0.4344 -0.8584
vn -0.2727 -0.4344 0.8584
vn 0.7903 0.1852 -0.5841
vn 0.1924 -0.7823 -0.5924
vn 0.7903 0.1852 0.5841
vn 0.1924 -0.7823 0.5924
vn -0.1924 0.7823 -0.5924
vn -0.7903 -0.1852 -0.5841
vn -0.1924 0.7823 0.5924
vn -0.7903 -0.1852 0.5841
vn 0.3002 -0.1795 -0.9368
vn -0.3002 0.1795 -0.9368
vn 0.3002 -0.1795 0.9368
vn -0.3002 0.1795 0.9368
vn 0.9837 -0.1796 0.0000
vn 0.6193 -0.7851 -0.0000
vn -0.6193 0.7851 -0.0000
vn -0.9837 0.1796 0.0000
vn 0.4945 0.7877 -0.3675
vn 0.4945 0.7877 0.3675
vn -0.4945 -0.7877 -0.3675
vn -0.4945 -0.7877 0.3675
usemtl None
s off
f 1//1 2//1 4//1 5//1
f 2//1 3//1 4//1
f 6//2 7//2 9//2 10//2
f 7//2 8//2 9//2
f 11//3 12//3 14//3 15//3
f 12//3 13//3 14//3
f 16//4 17//4 19//4 20//4
f 17//4 18//4 19//4
f 21//5 22//5 24//5 25//5
f 22//5 23//5 24//5
f 26//6 27//6 29//6 30//6
f 27//6 28//6 29//6
f 31//7 32//7 34//7 35//7
f 32//7 33//7 34//7
f 36//8 37//8 39//8 40//8
f 37//8 38//8 39//8
f 41//9 42//9 44//9 45//9
f 42//9 43//9 44//9
f 46//10 47//10 49//10 50//10
f 47//10 48//10 49//10
f 51//11 52//11 54//11 55//11
f 52//11 53//11 54//11
f 56//12 57//12 59//12 60//12
f 57//12 58//12 59//12
f 1//13 5//13 21//13 25//13
f 5//13 41//13 45//13 21//13
f 4//14 3//14 51//14 55//14
f 3//14 26//14 30//14 51//14
f 11//15 15//15 46//15 50//15
f 15//15 24//15 23//15 46//15
f 13//16 12//16 28//16 27//16
f 12//16 56//16 60//16 28//16
f 6//17 10//17 44//17 43//17
f 10//17 31//17 35//17 44//17
f 8//18 7//18 36//18 40//18
f 7//18 53//18 52//18 36//18
f 16//19 20//19 33//19 32//19
f 20//19 48//19 47//19 33//19
f 19//20 18//20 59//20 58//20
f 18//20 39//20 38//20 59//20
f 5//21 4//21 42//21 41//21
f 4//21 55//21 54//21 42//21
f 7//22 6//22 54//22 53//22
f 6//22 43//22 42//22 54//22
f 12//23 11//23 57//23 56//23
f 11//23 50//23 49//23 57//23
f 20//24 19//24 49//24 48//24
f 19//24 58//24 57//24 49//24
f 25//25 24//25 2//25 1//25
f 24//25 15//25 14//25 2//25
f 27//26 26//26 14//26 13//26
f 26//26 3//26 2//26 14//26
f 32//27 31//27 17//27 16//27
f 31//27 10//27 9//27 17//27
f 40//28 39//28 9//28 8//28
f 39//28 18//28 17//28 9//28
f 45//29 44//29 22//29 21//29
f 44//29 35//29 34//29 22//29
f 47//30 46//30 34//30 33//30
f 46//30 23//30 22//30 34//30
f 52//31 51//31 37//31 36//31
f 51//31 30//31 29//31 37//31
f 60//32 59//32 29//32 28//32
f 59//32 38//32 37//32 29//32
